<mxfile host="app.diagrams.net" agent="Mozilla/5.0 (Macintosh; Intel Mac OS X 10_15_7) AppleWebKit/605.1.15 (KHTML, like Gecko) Version/18.6 Safari/605.1.15" version="28.2.1">
  <diagram id="65YrT60S0ws-PlNcIAfQ" name="第 1 页">
    <mxGraphModel dx="5948" dy="4789" grid="1" gridSize="10" guides="1" tooltips="1" connect="1" arrows="1" fold="1" page="0" pageScale="1" pageWidth="827" pageHeight="1169" background="none" math="0" shadow="0">
      <root>
        <mxCell id="0" />
        <mxCell id="1" parent="0" />
        <mxCell id="izy5qJ_a97B4o7qX0N7h-158" value="" style="group" vertex="1" connectable="0" parent="1">
          <mxGeometry x="-4450" y="-3700" width="2090" height="1180" as="geometry" />
        </mxCell>
        <mxCell id="izy5qJ_a97B4o7qX0N7h-9" value="" style="group" vertex="1" connectable="0" parent="izy5qJ_a97B4o7qX0N7h-158">
          <mxGeometry x="1230" width="200" height="60" as="geometry" />
        </mxCell>
        <mxCell id="izy5qJ_a97B4o7qX0N7h-2" value="&lt;u&gt;album_id&lt;/u&gt;" style="rounded=0;whiteSpace=wrap;html=1;" vertex="1" parent="izy5qJ_a97B4o7qX0N7h-9">
          <mxGeometry y="30" width="100" height="30" as="geometry" />
        </mxCell>
        <mxCell id="izy5qJ_a97B4o7qX0N7h-7" value="release_date" style="rounded=0;whiteSpace=wrap;html=1;" vertex="1" parent="izy5qJ_a97B4o7qX0N7h-9">
          <mxGeometry x="100" y="30" width="100" height="30" as="geometry" />
        </mxCell>
        <mxCell id="izy5qJ_a97B4o7qX0N7h-8" value="Album" style="text;html=1;align=center;verticalAlign=middle;whiteSpace=wrap;rounded=0;" vertex="1" parent="izy5qJ_a97B4o7qX0N7h-9">
          <mxGeometry width="60" height="30" as="geometry" />
        </mxCell>
        <mxCell id="izy5qJ_a97B4o7qX0N7h-17" value="" style="group" vertex="1" connectable="0" parent="izy5qJ_a97B4o7qX0N7h-158">
          <mxGeometry x="830" y="220" width="500" height="60" as="geometry" />
        </mxCell>
        <mxCell id="izy5qJ_a97B4o7qX0N7h-10" value="" style="group" vertex="1" connectable="0" parent="izy5qJ_a97B4o7qX0N7h-17">
          <mxGeometry width="200" height="60" as="geometry" />
        </mxCell>
        <mxCell id="izy5qJ_a97B4o7qX0N7h-11" value="&lt;u&gt;track_id&lt;/u&gt;" style="rounded=0;whiteSpace=wrap;html=1;" vertex="1" parent="izy5qJ_a97B4o7qX0N7h-10">
          <mxGeometry y="30" width="100" height="30" as="geometry" />
        </mxCell>
        <mxCell id="izy5qJ_a97B4o7qX0N7h-12" value="title" style="rounded=0;whiteSpace=wrap;html=1;" vertex="1" parent="izy5qJ_a97B4o7qX0N7h-10">
          <mxGeometry x="100" y="30" width="100" height="30" as="geometry" />
        </mxCell>
        <mxCell id="izy5qJ_a97B4o7qX0N7h-13" value="Track" style="text;html=1;align=center;verticalAlign=middle;whiteSpace=wrap;rounded=0;" vertex="1" parent="izy5qJ_a97B4o7qX0N7h-10">
          <mxGeometry width="60" height="30" as="geometry" />
        </mxCell>
        <mxCell id="izy5qJ_a97B4o7qX0N7h-14" value="duration" style="rounded=0;whiteSpace=wrap;html=1;" vertex="1" parent="izy5qJ_a97B4o7qX0N7h-17">
          <mxGeometry x="200" y="30" width="100" height="30" as="geometry" />
        </mxCell>
        <mxCell id="izy5qJ_a97B4o7qX0N7h-15" value="genre" style="rounded=0;whiteSpace=wrap;html=1;" vertex="1" parent="izy5qJ_a97B4o7qX0N7h-17">
          <mxGeometry x="300" y="30" width="100" height="30" as="geometry" />
        </mxCell>
        <object label="album_id" id="izy5qJ_a97B4o7qX0N7h-16">
          <mxCell style="rounded=0;whiteSpace=wrap;html=1;" vertex="1" parent="izy5qJ_a97B4o7qX0N7h-17">
            <mxGeometry x="400" y="30" width="100" height="30" as="geometry" />
          </mxCell>
        </object>
        <mxCell id="izy5qJ_a97B4o7qX0N7h-20" value="" style="endArrow=none;dashed=1;html=1;rounded=0;fontFamily=Helvetica;fontSize=12;fontColor=default;" edge="1" parent="izy5qJ_a97B4o7qX0N7h-17">
          <mxGeometry width="50" height="50" relative="1" as="geometry">
            <mxPoint x="420" y="50" as="sourcePoint" />
            <mxPoint x="480" y="50" as="targetPoint" />
          </mxGeometry>
        </mxCell>
        <mxCell id="izy5qJ_a97B4o7qX0N7h-42" value="" style="group" vertex="1" connectable="0" parent="izy5qJ_a97B4o7qX0N7h-158">
          <mxGeometry x="1490" y="370" width="600" height="60" as="geometry" />
        </mxCell>
        <mxCell id="izy5qJ_a97B4o7qX0N7h-21" value="" style="group" vertex="1" connectable="0" parent="izy5qJ_a97B4o7qX0N7h-42">
          <mxGeometry width="500" height="60" as="geometry" />
        </mxCell>
        <mxCell id="izy5qJ_a97B4o7qX0N7h-22" value="" style="group" vertex="1" connectable="0" parent="izy5qJ_a97B4o7qX0N7h-21">
          <mxGeometry width="200" height="60" as="geometry" />
        </mxCell>
        <mxCell id="izy5qJ_a97B4o7qX0N7h-23" value="&lt;u&gt;artist_id&lt;/u&gt;" style="rounded=0;whiteSpace=wrap;html=1;" vertex="1" parent="izy5qJ_a97B4o7qX0N7h-22">
          <mxGeometry y="30" width="100" height="30" as="geometry" />
        </mxCell>
        <mxCell id="izy5qJ_a97B4o7qX0N7h-24" value="full_name" style="rounded=0;whiteSpace=wrap;html=1;" vertex="1" parent="izy5qJ_a97B4o7qX0N7h-22">
          <mxGeometry x="100" y="30" width="100" height="30" as="geometry" />
        </mxCell>
        <mxCell id="izy5qJ_a97B4o7qX0N7h-25" value="Artist" style="text;html=1;align=center;verticalAlign=middle;whiteSpace=wrap;rounded=0;" vertex="1" parent="izy5qJ_a97B4o7qX0N7h-22">
          <mxGeometry width="60" height="30" as="geometry" />
        </mxCell>
        <mxCell id="izy5qJ_a97B4o7qX0N7h-26" value="email" style="rounded=0;whiteSpace=wrap;html=1;" vertex="1" parent="izy5qJ_a97B4o7qX0N7h-21">
          <mxGeometry x="200" y="30" width="100" height="30" as="geometry" />
        </mxCell>
        <mxCell id="izy5qJ_a97B4o7qX0N7h-27" value="login_name" style="rounded=0;whiteSpace=wrap;html=1;" vertex="1" parent="izy5qJ_a97B4o7qX0N7h-21">
          <mxGeometry x="300" y="30" width="100" height="30" as="geometry" />
        </mxCell>
        <object label="password" id="izy5qJ_a97B4o7qX0N7h-28">
          <mxCell style="rounded=0;whiteSpace=wrap;html=1;" vertex="1" parent="izy5qJ_a97B4o7qX0N7h-21">
            <mxGeometry x="400" y="30" width="100" height="30" as="geometry" />
          </mxCell>
        </object>
        <object label="mobile_number" id="izy5qJ_a97B4o7qX0N7h-41">
          <mxCell style="rounded=0;whiteSpace=wrap;html=1;" vertex="1" parent="izy5qJ_a97B4o7qX0N7h-42">
            <mxGeometry x="500" y="30" width="100" height="30" as="geometry" />
          </mxCell>
        </object>
        <mxCell id="izy5qJ_a97B4o7qX0N7h-55" value="" style="group" vertex="1" connectable="0" parent="izy5qJ_a97B4o7qX0N7h-158">
          <mxGeometry y="440" width="800" height="60" as="geometry" />
        </mxCell>
        <mxCell id="izy5qJ_a97B4o7qX0N7h-43" value="" style="group" vertex="1" connectable="0" parent="izy5qJ_a97B4o7qX0N7h-55">
          <mxGeometry width="600" height="60" as="geometry" />
        </mxCell>
        <mxCell id="izy5qJ_a97B4o7qX0N7h-44" value="" style="group" vertex="1" connectable="0" parent="izy5qJ_a97B4o7qX0N7h-43">
          <mxGeometry width="500" height="60" as="geometry" />
        </mxCell>
        <mxCell id="izy5qJ_a97B4o7qX0N7h-45" value="" style="group" vertex="1" connectable="0" parent="izy5qJ_a97B4o7qX0N7h-44">
          <mxGeometry width="200" height="60" as="geometry" />
        </mxCell>
        <mxCell id="izy5qJ_a97B4o7qX0N7h-46" value="&lt;u&gt;customer_id&lt;/u&gt;" style="rounded=0;whiteSpace=wrap;html=1;" vertex="1" parent="izy5qJ_a97B4o7qX0N7h-45">
          <mxGeometry y="30" width="100" height="30" as="geometry" />
        </mxCell>
        <mxCell id="izy5qJ_a97B4o7qX0N7h-47" value="full_name" style="rounded=0;whiteSpace=wrap;html=1;" vertex="1" parent="izy5qJ_a97B4o7qX0N7h-45">
          <mxGeometry x="100" y="30" width="100" height="30" as="geometry" />
        </mxCell>
        <mxCell id="izy5qJ_a97B4o7qX0N7h-48" value="Customer" style="text;html=1;align=center;verticalAlign=middle;whiteSpace=wrap;rounded=0;" vertex="1" parent="izy5qJ_a97B4o7qX0N7h-45">
          <mxGeometry width="60" height="30" as="geometry" />
        </mxCell>
        <mxCell id="izy5qJ_a97B4o7qX0N7h-49" value="email" style="rounded=0;whiteSpace=wrap;html=1;" vertex="1" parent="izy5qJ_a97B4o7qX0N7h-44">
          <mxGeometry x="200" y="30" width="100" height="30" as="geometry" />
        </mxCell>
        <mxCell id="izy5qJ_a97B4o7qX0N7h-50" value="login_name" style="rounded=0;whiteSpace=wrap;html=1;" vertex="1" parent="izy5qJ_a97B4o7qX0N7h-44">
          <mxGeometry x="300" y="30" width="100" height="30" as="geometry" />
        </mxCell>
        <object label="password" id="izy5qJ_a97B4o7qX0N7h-51">
          <mxCell style="rounded=0;whiteSpace=wrap;html=1;" vertex="1" parent="izy5qJ_a97B4o7qX0N7h-44">
            <mxGeometry x="400" y="30" width="100" height="30" as="geometry" />
          </mxCell>
        </object>
        <object label="mobile_number" id="izy5qJ_a97B4o7qX0N7h-52">
          <mxCell style="rounded=0;whiteSpace=wrap;html=1;" vertex="1" parent="izy5qJ_a97B4o7qX0N7h-43">
            <mxGeometry x="500" y="30" width="100" height="30" as="geometry" />
          </mxCell>
        </object>
        <object label="age" id="izy5qJ_a97B4o7qX0N7h-53">
          <mxCell style="rounded=0;whiteSpace=wrap;html=1;" vertex="1" parent="izy5qJ_a97B4o7qX0N7h-55">
            <mxGeometry x="600" y="30" width="100" height="30" as="geometry" />
          </mxCell>
        </object>
        <object label="birth_date" id="izy5qJ_a97B4o7qX0N7h-54">
          <mxCell style="rounded=0;whiteSpace=wrap;html=1;" vertex="1" parent="izy5qJ_a97B4o7qX0N7h-55">
            <mxGeometry x="700" y="30" width="100" height="30" as="geometry" />
          </mxCell>
        </object>
        <mxCell id="izy5qJ_a97B4o7qX0N7h-63" value="" style="group" vertex="1" connectable="0" parent="izy5qJ_a97B4o7qX0N7h-158">
          <mxGeometry x="950" y="430" width="328" height="70" as="geometry" />
        </mxCell>
        <mxCell id="izy5qJ_a97B4o7qX0N7h-56" value="" style="group" vertex="1" connectable="0" parent="izy5qJ_a97B4o7qX0N7h-63">
          <mxGeometry width="218.66666666666666" height="70" as="geometry" />
        </mxCell>
        <mxCell id="izy5qJ_a97B4o7qX0N7h-57" value="&lt;u&gt;customer_id&lt;/u&gt;" style="rounded=0;whiteSpace=wrap;html=1;" vertex="1" parent="izy5qJ_a97B4o7qX0N7h-56">
          <mxGeometry y="35" width="109.33333333333333" height="35" as="geometry" />
        </mxCell>
        <mxCell id="izy5qJ_a97B4o7qX0N7h-58" value="&lt;u&gt;track_id&lt;/u&gt;" style="rounded=0;whiteSpace=wrap;html=1;" vertex="1" parent="izy5qJ_a97B4o7qX0N7h-56">
          <mxGeometry x="109.33333333333333" y="35" width="109.33333333333333" height="35" as="geometry" />
        </mxCell>
        <mxCell id="izy5qJ_a97B4o7qX0N7h-59" value="Listens_to" style="text;html=1;align=center;verticalAlign=middle;whiteSpace=wrap;rounded=0;" vertex="1" parent="izy5qJ_a97B4o7qX0N7h-56">
          <mxGeometry width="65.6" height="35" as="geometry" />
        </mxCell>
        <mxCell id="izy5qJ_a97B4o7qX0N7h-61" value="" style="endArrow=none;dashed=1;html=1;rounded=0;fontFamily=Helvetica;fontSize=12;fontColor=default;" edge="1" parent="izy5qJ_a97B4o7qX0N7h-56">
          <mxGeometry width="50" height="50" relative="1" as="geometry">
            <mxPoint x="134" y="60" as="sourcePoint" />
            <mxPoint x="194" y="60" as="targetPoint" />
          </mxGeometry>
        </mxCell>
        <mxCell id="izy5qJ_a97B4o7qX0N7h-62" value="" style="endArrow=none;dashed=1;html=1;rounded=0;fontFamily=Helvetica;fontSize=12;fontColor=default;" edge="1" parent="izy5qJ_a97B4o7qX0N7h-56">
          <mxGeometry width="50" height="50" relative="1" as="geometry">
            <mxPoint x="19.670000000000016" y="60" as="sourcePoint" />
            <mxPoint x="89.67000000000002" y="60" as="targetPoint" />
          </mxGeometry>
        </mxCell>
        <mxCell id="izy5qJ_a97B4o7qX0N7h-60" value="times" style="rounded=0;whiteSpace=wrap;html=1;" vertex="1" parent="izy5qJ_a97B4o7qX0N7h-63">
          <mxGeometry x="218.66666666666666" y="35" width="109.33333333333333" height="35" as="geometry" />
        </mxCell>
        <mxCell id="izy5qJ_a97B4o7qX0N7h-76" value="" style="group" vertex="1" connectable="0" parent="izy5qJ_a97B4o7qX0N7h-158">
          <mxGeometry x="60" y="650" width="700" height="60" as="geometry" />
        </mxCell>
        <mxCell id="izy5qJ_a97B4o7qX0N7h-64" value="" style="group" vertex="1" connectable="0" parent="izy5qJ_a97B4o7qX0N7h-76">
          <mxGeometry width="200" height="60" as="geometry" />
        </mxCell>
        <mxCell id="izy5qJ_a97B4o7qX0N7h-65" value="&lt;u&gt;review_id&lt;/u&gt;" style="rounded=0;whiteSpace=wrap;html=1;" vertex="1" parent="izy5qJ_a97B4o7qX0N7h-64">
          <mxGeometry y="30" width="100" height="30" as="geometry" />
        </mxCell>
        <mxCell id="izy5qJ_a97B4o7qX0N7h-66" value="customer_id" style="rounded=0;whiteSpace=wrap;html=1;" vertex="1" parent="izy5qJ_a97B4o7qX0N7h-64">
          <mxGeometry x="100" y="30" width="100" height="30" as="geometry" />
        </mxCell>
        <mxCell id="izy5qJ_a97B4o7qX0N7h-67" value="Review" style="text;html=1;align=center;verticalAlign=middle;whiteSpace=wrap;rounded=0;" vertex="1" parent="izy5qJ_a97B4o7qX0N7h-64">
          <mxGeometry width="60" height="30" as="geometry" />
        </mxCell>
        <mxCell id="izy5qJ_a97B4o7qX0N7h-73" value="" style="endArrow=none;dashed=1;html=1;rounded=0;fontFamily=Helvetica;fontSize=12;fontColor=default;" edge="1" parent="izy5qJ_a97B4o7qX0N7h-64">
          <mxGeometry width="50" height="50" relative="1" as="geometry">
            <mxPoint x="110" y="50" as="sourcePoint" />
            <mxPoint x="190" y="50" as="targetPoint" />
          </mxGeometry>
        </mxCell>
        <mxCell id="izy5qJ_a97B4o7qX0N7h-68" value="track_id" style="rounded=0;whiteSpace=wrap;html=1;" vertex="1" parent="izy5qJ_a97B4o7qX0N7h-76">
          <mxGeometry x="200" y="30" width="100" height="30" as="geometry" />
        </mxCell>
        <mxCell id="izy5qJ_a97B4o7qX0N7h-69" value="rating" style="rounded=0;whiteSpace=wrap;html=1;" vertex="1" parent="izy5qJ_a97B4o7qX0N7h-76">
          <mxGeometry x="300" y="30" width="100" height="30" as="geometry" />
        </mxCell>
        <mxCell id="izy5qJ_a97B4o7qX0N7h-70" value="comment" style="rounded=0;whiteSpace=wrap;html=1;" vertex="1" parent="izy5qJ_a97B4o7qX0N7h-76">
          <mxGeometry x="400" y="30" width="100" height="30" as="geometry" />
        </mxCell>
        <mxCell id="izy5qJ_a97B4o7qX0N7h-71" value="created_date" style="rounded=0;whiteSpace=wrap;html=1;" vertex="1" parent="izy5qJ_a97B4o7qX0N7h-76">
          <mxGeometry x="500" y="30" width="100" height="30" as="geometry" />
        </mxCell>
        <mxCell id="izy5qJ_a97B4o7qX0N7h-72" value="created_time" style="rounded=0;whiteSpace=wrap;html=1;" vertex="1" parent="izy5qJ_a97B4o7qX0N7h-76">
          <mxGeometry x="600" y="30" width="100" height="30" as="geometry" />
        </mxCell>
        <mxCell id="izy5qJ_a97B4o7qX0N7h-75" value="" style="endArrow=none;dashed=1;html=1;rounded=0;fontFamily=Helvetica;fontSize=12;fontColor=default;" edge="1" parent="izy5qJ_a97B4o7qX0N7h-76">
          <mxGeometry width="50" height="50" relative="1" as="geometry">
            <mxPoint x="225" y="50" as="sourcePoint" />
            <mxPoint x="275" y="50" as="targetPoint" />
          </mxGeometry>
        </mxCell>
        <mxCell id="izy5qJ_a97B4o7qX0N7h-77" value="" style="group" vertex="1" connectable="0" parent="izy5qJ_a97B4o7qX0N7h-158">
          <mxGeometry x="1490" y="760" width="328" height="70" as="geometry" />
        </mxCell>
        <mxCell id="izy5qJ_a97B4o7qX0N7h-78" value="" style="group" vertex="1" connectable="0" parent="izy5qJ_a97B4o7qX0N7h-77">
          <mxGeometry width="218.66666666666666" height="70" as="geometry" />
        </mxCell>
        <mxCell id="izy5qJ_a97B4o7qX0N7h-79" value="&lt;u&gt;artist_id&lt;/u&gt;" style="rounded=0;whiteSpace=wrap;html=1;" vertex="1" parent="izy5qJ_a97B4o7qX0N7h-78">
          <mxGeometry y="35" width="109.33333333333333" height="35" as="geometry" />
        </mxCell>
        <mxCell id="izy5qJ_a97B4o7qX0N7h-80" value="&lt;u&gt;track_id&lt;/u&gt;" style="rounded=0;whiteSpace=wrap;html=1;" vertex="1" parent="izy5qJ_a97B4o7qX0N7h-78">
          <mxGeometry x="109.33333333333333" y="35" width="109.33333333333333" height="35" as="geometry" />
        </mxCell>
        <mxCell id="izy5qJ_a97B4o7qX0N7h-81" value="Contributed" style="text;html=1;align=center;verticalAlign=middle;whiteSpace=wrap;rounded=0;" vertex="1" parent="izy5qJ_a97B4o7qX0N7h-78">
          <mxGeometry width="65.6" height="35" as="geometry" />
        </mxCell>
        <mxCell id="izy5qJ_a97B4o7qX0N7h-82" value="" style="endArrow=none;dashed=1;html=1;rounded=0;fontFamily=Helvetica;fontSize=12;fontColor=default;" edge="1" parent="izy5qJ_a97B4o7qX0N7h-78">
          <mxGeometry width="50" height="50" relative="1" as="geometry">
            <mxPoint x="134" y="60" as="sourcePoint" />
            <mxPoint x="194" y="60" as="targetPoint" />
          </mxGeometry>
        </mxCell>
        <mxCell id="izy5qJ_a97B4o7qX0N7h-83" value="" style="endArrow=none;dashed=1;html=1;rounded=0;fontFamily=Helvetica;fontSize=12;fontColor=default;" edge="1" parent="izy5qJ_a97B4o7qX0N7h-78">
          <mxGeometry width="50" height="50" relative="1" as="geometry">
            <mxPoint x="19.670000000000016" y="60" as="sourcePoint" />
            <mxPoint x="89.67000000000002" y="60" as="targetPoint" />
          </mxGeometry>
        </mxCell>
        <mxCell id="izy5qJ_a97B4o7qX0N7h-84" value="role" style="rounded=0;whiteSpace=wrap;html=1;" vertex="1" parent="izy5qJ_a97B4o7qX0N7h-77">
          <mxGeometry x="218.66666666666666" y="35" width="109.33333333333333" height="35" as="geometry" />
        </mxCell>
        <mxCell id="izy5qJ_a97B4o7qX0N7h-91" value="" style="group" vertex="1" connectable="0" parent="izy5qJ_a97B4o7qX0N7h-158">
          <mxGeometry x="960" y="710" width="300" height="60" as="geometry" />
        </mxCell>
        <mxCell id="izy5qJ_a97B4o7qX0N7h-85" value="" style="group" vertex="1" connectable="0" parent="izy5qJ_a97B4o7qX0N7h-91">
          <mxGeometry width="200" height="60" as="geometry" />
        </mxCell>
        <mxCell id="izy5qJ_a97B4o7qX0N7h-86" value="&lt;u&gt;playlist_id&lt;/u&gt;" style="rounded=0;whiteSpace=wrap;html=1;" vertex="1" parent="izy5qJ_a97B4o7qX0N7h-85">
          <mxGeometry y="30" width="100" height="30" as="geometry" />
        </mxCell>
        <mxCell id="izy5qJ_a97B4o7qX0N7h-87" value="customer_id" style="rounded=0;whiteSpace=wrap;html=1;" vertex="1" parent="izy5qJ_a97B4o7qX0N7h-85">
          <mxGeometry x="100" y="30" width="100" height="30" as="geometry" />
        </mxCell>
        <mxCell id="izy5qJ_a97B4o7qX0N7h-88" value="Playlist" style="text;html=1;align=center;verticalAlign=middle;whiteSpace=wrap;rounded=0;" vertex="1" parent="izy5qJ_a97B4o7qX0N7h-85">
          <mxGeometry width="60" height="30" as="geometry" />
        </mxCell>
        <mxCell id="izy5qJ_a97B4o7qX0N7h-90" value="" style="endArrow=none;dashed=1;html=1;rounded=0;fontFamily=Helvetica;fontSize=12;fontColor=default;" edge="1" parent="izy5qJ_a97B4o7qX0N7h-85">
          <mxGeometry width="50" height="50" relative="1" as="geometry">
            <mxPoint x="115" y="50" as="sourcePoint" />
            <mxPoint x="185" y="50" as="targetPoint" />
          </mxGeometry>
        </mxCell>
        <mxCell id="izy5qJ_a97B4o7qX0N7h-89" value="name" style="rounded=0;whiteSpace=wrap;html=1;" vertex="1" parent="izy5qJ_a97B4o7qX0N7h-91">
          <mxGeometry x="200" y="30" width="100" height="30" as="geometry" />
        </mxCell>
        <mxCell id="izy5qJ_a97B4o7qX0N7h-92" value="" style="group" vertex="1" connectable="0" parent="izy5qJ_a97B4o7qX0N7h-158">
          <mxGeometry x="30" y="1120" width="800" height="60" as="geometry" />
        </mxCell>
        <mxCell id="izy5qJ_a97B4o7qX0N7h-93" value="" style="group" vertex="1" connectable="0" parent="izy5qJ_a97B4o7qX0N7h-92">
          <mxGeometry width="600" height="60" as="geometry" />
        </mxCell>
        <mxCell id="izy5qJ_a97B4o7qX0N7h-94" value="" style="group" vertex="1" connectable="0" parent="izy5qJ_a97B4o7qX0N7h-93">
          <mxGeometry width="500" height="60" as="geometry" />
        </mxCell>
        <mxCell id="izy5qJ_a97B4o7qX0N7h-95" value="" style="group" vertex="1" connectable="0" parent="izy5qJ_a97B4o7qX0N7h-94">
          <mxGeometry width="200" height="60" as="geometry" />
        </mxCell>
        <mxCell id="izy5qJ_a97B4o7qX0N7h-96" value="&lt;u&gt;staff_id&lt;/u&gt;" style="rounded=0;whiteSpace=wrap;html=1;" vertex="1" parent="izy5qJ_a97B4o7qX0N7h-95">
          <mxGeometry y="30" width="100" height="30" as="geometry" />
        </mxCell>
        <mxCell id="izy5qJ_a97B4o7qX0N7h-97" value="full_name" style="rounded=0;whiteSpace=wrap;html=1;" vertex="1" parent="izy5qJ_a97B4o7qX0N7h-95">
          <mxGeometry x="100" y="30" width="100" height="30" as="geometry" />
        </mxCell>
        <mxCell id="izy5qJ_a97B4o7qX0N7h-98" value="Staff" style="text;html=1;align=center;verticalAlign=middle;whiteSpace=wrap;rounded=0;" vertex="1" parent="izy5qJ_a97B4o7qX0N7h-95">
          <mxGeometry width="60" height="30" as="geometry" />
        </mxCell>
        <mxCell id="izy5qJ_a97B4o7qX0N7h-99" value="email" style="rounded=0;whiteSpace=wrap;html=1;" vertex="1" parent="izy5qJ_a97B4o7qX0N7h-94">
          <mxGeometry x="200" y="30" width="100" height="30" as="geometry" />
        </mxCell>
        <mxCell id="izy5qJ_a97B4o7qX0N7h-100" value="login_name" style="rounded=0;whiteSpace=wrap;html=1;" vertex="1" parent="izy5qJ_a97B4o7qX0N7h-94">
          <mxGeometry x="300" y="30" width="100" height="30" as="geometry" />
        </mxCell>
        <object label="password" id="izy5qJ_a97B4o7qX0N7h-101">
          <mxCell style="rounded=0;whiteSpace=wrap;html=1;" vertex="1" parent="izy5qJ_a97B4o7qX0N7h-94">
            <mxGeometry x="400" y="30" width="100" height="30" as="geometry" />
          </mxCell>
        </object>
        <object label="mobile_number" id="izy5qJ_a97B4o7qX0N7h-102">
          <mxCell style="rounded=0;whiteSpace=wrap;html=1;" vertex="1" parent="izy5qJ_a97B4o7qX0N7h-93">
            <mxGeometry x="500" y="30" width="100" height="30" as="geometry" />
          </mxCell>
        </object>
        <object label="address" id="izy5qJ_a97B4o7qX0N7h-103">
          <mxCell style="rounded=0;whiteSpace=wrap;html=1;" vertex="1" parent="izy5qJ_a97B4o7qX0N7h-92">
            <mxGeometry x="600" y="30" width="100" height="30" as="geometry" />
          </mxCell>
        </object>
        <object label="compensation" id="izy5qJ_a97B4o7qX0N7h-104">
          <mxCell style="rounded=0;whiteSpace=wrap;html=1;" vertex="1" parent="izy5qJ_a97B4o7qX0N7h-92">
            <mxGeometry x="700" y="30" width="100" height="30" as="geometry" />
          </mxCell>
        </object>
        <mxCell id="izy5qJ_a97B4o7qX0N7h-128" value="" style="group" vertex="1" connectable="0" parent="izy5qJ_a97B4o7qX0N7h-158">
          <mxGeometry x="190" y="872" width="546.6633333333333" height="70" as="geometry" />
        </mxCell>
        <mxCell id="izy5qJ_a97B4o7qX0N7h-118" value="" style="group" vertex="1" connectable="0" parent="izy5qJ_a97B4o7qX0N7h-128">
          <mxGeometry width="328" height="70" as="geometry" />
        </mxCell>
        <mxCell id="izy5qJ_a97B4o7qX0N7h-119" value="" style="group" vertex="1" connectable="0" parent="izy5qJ_a97B4o7qX0N7h-118">
          <mxGeometry width="218.66666666666666" height="70" as="geometry" />
        </mxCell>
        <mxCell id="izy5qJ_a97B4o7qX0N7h-120" value="&lt;u&gt;staff_id&lt;/u&gt;" style="rounded=0;whiteSpace=wrap;html=1;" vertex="1" parent="izy5qJ_a97B4o7qX0N7h-119">
          <mxGeometry y="35" width="109.33333333333333" height="35" as="geometry" />
        </mxCell>
        <mxCell id="izy5qJ_a97B4o7qX0N7h-121" value="&lt;u&gt;review_id&lt;/u&gt;" style="rounded=0;whiteSpace=wrap;html=1;" vertex="1" parent="izy5qJ_a97B4o7qX0N7h-119">
          <mxGeometry x="109.33333333333333" y="35" width="109.33333333333333" height="35" as="geometry" />
        </mxCell>
        <mxCell id="izy5qJ_a97B4o7qX0N7h-122" value="Remove" style="text;html=1;align=center;verticalAlign=middle;whiteSpace=wrap;rounded=0;" vertex="1" parent="izy5qJ_a97B4o7qX0N7h-119">
          <mxGeometry width="65.6" height="35" as="geometry" />
        </mxCell>
        <mxCell id="izy5qJ_a97B4o7qX0N7h-123" value="" style="endArrow=none;dashed=1;html=1;rounded=0;fontFamily=Helvetica;fontSize=12;fontColor=default;" edge="1" parent="izy5qJ_a97B4o7qX0N7h-119">
          <mxGeometry width="50" height="50" relative="1" as="geometry">
            <mxPoint x="134" y="60" as="sourcePoint" />
            <mxPoint x="194" y="60" as="targetPoint" />
          </mxGeometry>
        </mxCell>
        <mxCell id="izy5qJ_a97B4o7qX0N7h-124" value="" style="endArrow=none;dashed=1;html=1;rounded=0;fontFamily=Helvetica;fontSize=12;fontColor=default;" edge="1" parent="izy5qJ_a97B4o7qX0N7h-119">
          <mxGeometry width="50" height="50" relative="1" as="geometry">
            <mxPoint x="19.670000000000016" y="60" as="sourcePoint" />
            <mxPoint x="89.67000000000002" y="60" as="targetPoint" />
          </mxGeometry>
        </mxCell>
        <mxCell id="izy5qJ_a97B4o7qX0N7h-125" value="removal_reason" style="rounded=0;whiteSpace=wrap;html=1;" vertex="1" parent="izy5qJ_a97B4o7qX0N7h-118">
          <mxGeometry x="218.66666666666666" y="35" width="109.33333333333333" height="35" as="geometry" />
        </mxCell>
        <mxCell id="izy5qJ_a97B4o7qX0N7h-126" value="removal_date" style="rounded=0;whiteSpace=wrap;html=1;" vertex="1" parent="izy5qJ_a97B4o7qX0N7h-128">
          <mxGeometry x="328" y="35" width="109.33333333333333" height="35" as="geometry" />
        </mxCell>
        <mxCell id="izy5qJ_a97B4o7qX0N7h-127" value="removal_time" style="rounded=0;whiteSpace=wrap;html=1;" vertex="1" parent="izy5qJ_a97B4o7qX0N7h-128">
          <mxGeometry x="437.33" y="35" width="109.33333333333333" height="35" as="geometry" />
        </mxCell>
        <mxCell id="izy5qJ_a97B4o7qX0N7h-141" value="" style="group" vertex="1" connectable="0" parent="izy5qJ_a97B4o7qX0N7h-158">
          <mxGeometry x="960" y="990" width="310" height="60" as="geometry" />
        </mxCell>
        <mxCell id="izy5qJ_a97B4o7qX0N7h-138" value="position" style="rounded=0;whiteSpace=wrap;html=1;container=0;" vertex="1" parent="izy5qJ_a97B4o7qX0N7h-141">
          <mxGeometry x="206.66666666666666" y="30" width="103.33333333333334" height="30" as="geometry" />
        </mxCell>
        <mxCell id="izy5qJ_a97B4o7qX0N7h-133" value="&lt;u&gt;playlist_id&lt;/u&gt;" style="rounded=0;whiteSpace=wrap;html=1;container=0;" vertex="1" parent="izy5qJ_a97B4o7qX0N7h-141">
          <mxGeometry y="30" width="103.33333333333334" height="30" as="geometry" />
        </mxCell>
        <mxCell id="izy5qJ_a97B4o7qX0N7h-134" value="&lt;u&gt;track_id&lt;/u&gt;" style="rounded=0;whiteSpace=wrap;html=1;container=0;" vertex="1" parent="izy5qJ_a97B4o7qX0N7h-141">
          <mxGeometry x="103.33333333333333" y="30" width="103.33333333333334" height="30" as="geometry" />
        </mxCell>
        <mxCell id="izy5qJ_a97B4o7qX0N7h-135" value="Playlistitem" style="text;html=1;align=center;verticalAlign=middle;whiteSpace=wrap;rounded=0;container=0;" vertex="1" parent="izy5qJ_a97B4o7qX0N7h-141">
          <mxGeometry width="62.00000000000001" height="30" as="geometry" />
        </mxCell>
        <mxCell id="izy5qJ_a97B4o7qX0N7h-136" value="" style="endArrow=none;dashed=1;html=1;rounded=0;fontFamily=Helvetica;fontSize=12;fontColor=default;" edge="1" parent="izy5qJ_a97B4o7qX0N7h-141">
          <mxGeometry width="50" height="50" relative="1" as="geometry">
            <mxPoint x="126.64634146341466" y="51.42857142857142" as="sourcePoint" />
            <mxPoint x="183.35365853658539" y="51.42857142857142" as="targetPoint" />
          </mxGeometry>
        </mxCell>
        <mxCell id="izy5qJ_a97B4o7qX0N7h-137" value="" style="endArrow=none;dashed=1;html=1;rounded=0;fontFamily=Helvetica;fontSize=12;fontColor=default;" edge="1" parent="izy5qJ_a97B4o7qX0N7h-141">
          <mxGeometry width="50" height="50" relative="1" as="geometry">
            <mxPoint x="18.590548780487822" y="51.42857142857142" as="sourcePoint" />
            <mxPoint x="84.74908536585369" y="51.42857142857142" as="targetPoint" />
          </mxGeometry>
        </mxCell>
        <mxCell id="izy5qJ_a97B4o7qX0N7h-144" value="" style="endArrow=classic;html=1;rounded=0;fontFamily=Helvetica;fontSize=12;fontColor=default;exitX=0.5;exitY=0;exitDx=0;exitDy=0;entryX=0.5;entryY=1;entryDx=0;entryDy=0;" edge="1" parent="izy5qJ_a97B4o7qX0N7h-158" source="izy5qJ_a97B4o7qX0N7h-16" target="izy5qJ_a97B4o7qX0N7h-2">
          <mxGeometry width="50" height="50" relative="1" as="geometry">
            <mxPoint x="1860" y="680" as="sourcePoint" />
            <mxPoint x="1910" y="630" as="targetPoint" />
            <Array as="points">
              <mxPoint x="1280" y="140" />
            </Array>
          </mxGeometry>
        </mxCell>
        <mxCell id="izy5qJ_a97B4o7qX0N7h-145" value="" style="endArrow=classic;html=1;rounded=0;fontFamily=Helvetica;fontSize=12;fontColor=default;exitX=0.5;exitY=0;exitDx=0;exitDy=0;entryX=0.5;entryY=1;entryDx=0;entryDy=0;" edge="1" parent="izy5qJ_a97B4o7qX0N7h-158" source="izy5qJ_a97B4o7qX0N7h-58" target="izy5qJ_a97B4o7qX0N7h-11">
          <mxGeometry width="50" height="50" relative="1" as="geometry">
            <mxPoint x="1860" y="750" as="sourcePoint" />
            <mxPoint x="1000" y="350" as="targetPoint" />
            <Array as="points">
              <mxPoint x="1114" y="370" />
              <mxPoint x="880" y="370" />
            </Array>
          </mxGeometry>
        </mxCell>
        <mxCell id="izy5qJ_a97B4o7qX0N7h-147" value="" style="endArrow=classic;html=1;rounded=0;fontFamily=Helvetica;fontSize=12;fontColor=default;exitX=0.5;exitY=0;exitDx=0;exitDy=0;entryX=0.5;entryY=0;entryDx=0;entryDy=0;" edge="1" parent="izy5qJ_a97B4o7qX0N7h-158" source="izy5qJ_a97B4o7qX0N7h-57" target="izy5qJ_a97B4o7qX0N7h-46">
          <mxGeometry width="50" height="50" relative="1" as="geometry">
            <mxPoint x="650" y="380" as="sourcePoint" />
            <mxPoint x="700" y="330" as="targetPoint" />
            <Array as="points">
              <mxPoint x="1005" y="390" />
              <mxPoint x="530" y="390" />
              <mxPoint x="50" y="390" />
            </Array>
          </mxGeometry>
        </mxCell>
        <mxCell id="izy5qJ_a97B4o7qX0N7h-148" value="" style="endArrow=classic;html=1;rounded=0;fontFamily=Helvetica;fontSize=12;fontColor=default;exitX=0.5;exitY=0;exitDx=0;exitDy=0;entryX=0.5;entryY=1;entryDx=0;entryDy=0;" edge="1" parent="izy5qJ_a97B4o7qX0N7h-158" source="izy5qJ_a97B4o7qX0N7h-79" target="izy5qJ_a97B4o7qX0N7h-23">
          <mxGeometry width="50" height="50" relative="1" as="geometry">
            <mxPoint x="1560" y="770" as="sourcePoint" />
            <mxPoint x="1610" y="720" as="targetPoint" />
          </mxGeometry>
        </mxCell>
        <mxCell id="izy5qJ_a97B4o7qX0N7h-149" value="" style="endArrow=classic;html=1;rounded=0;fontFamily=Helvetica;fontSize=12;fontColor=default;exitX=0.5;exitY=1;exitDx=0;exitDy=0;entryX=0.5;entryY=1;entryDx=0;entryDy=0;" edge="1" parent="izy5qJ_a97B4o7qX0N7h-158" source="izy5qJ_a97B4o7qX0N7h-80" target="izy5qJ_a97B4o7qX0N7h-11">
          <mxGeometry width="50" height="50" relative="1" as="geometry">
            <mxPoint x="1560" y="770" as="sourcePoint" />
            <mxPoint x="1610" y="720" as="targetPoint" />
            <Array as="points">
              <mxPoint x="1654" y="950" />
              <mxPoint x="1470" y="950" />
              <mxPoint x="1470" y="370" />
              <mxPoint x="880" y="370" />
            </Array>
          </mxGeometry>
        </mxCell>
        <mxCell id="izy5qJ_a97B4o7qX0N7h-150" value="" style="endArrow=classic;html=1;rounded=0;fontFamily=Helvetica;fontSize=12;fontColor=default;exitX=0.5;exitY=0;exitDx=0;exitDy=0;entryX=0.5;entryY=1;entryDx=0;entryDy=0;" edge="1" parent="izy5qJ_a97B4o7qX0N7h-158" source="izy5qJ_a97B4o7qX0N7h-133" target="izy5qJ_a97B4o7qX0N7h-86">
          <mxGeometry width="50" height="50" relative="1" as="geometry">
            <mxPoint x="1140" y="940" as="sourcePoint" />
            <mxPoint x="1190" y="890" as="targetPoint" />
          </mxGeometry>
        </mxCell>
        <mxCell id="izy5qJ_a97B4o7qX0N7h-151" value="" style="endArrow=classic;html=1;rounded=0;fontFamily=Helvetica;fontSize=12;fontColor=default;exitX=0.5;exitY=0;exitDx=0;exitDy=0;entryX=0.5;entryY=1;entryDx=0;entryDy=0;" edge="1" parent="izy5qJ_a97B4o7qX0N7h-158" source="izy5qJ_a97B4o7qX0N7h-134" target="izy5qJ_a97B4o7qX0N7h-11">
          <mxGeometry width="50" height="50" relative="1" as="geometry">
            <mxPoint x="1140" y="940" as="sourcePoint" />
            <mxPoint x="1190" y="890" as="targetPoint" />
            <Array as="points">
              <mxPoint x="1115" y="920" />
              <mxPoint x="1400" y="920" />
              <mxPoint x="1400" y="370" />
              <mxPoint x="880" y="370" />
            </Array>
          </mxGeometry>
        </mxCell>
        <mxCell id="izy5qJ_a97B4o7qX0N7h-152" value="" style="endArrow=classic;html=1;rounded=0;fontFamily=Helvetica;fontSize=12;fontColor=default;exitX=0.5;exitY=0;exitDx=0;exitDy=0;entryX=0.5;entryY=1;entryDx=0;entryDy=0;" edge="1" parent="izy5qJ_a97B4o7qX0N7h-158" source="izy5qJ_a97B4o7qX0N7h-87" target="izy5qJ_a97B4o7qX0N7h-46">
          <mxGeometry width="50" height="50" relative="1" as="geometry">
            <mxPoint x="680" y="970" as="sourcePoint" />
            <mxPoint x="730" y="920" as="targetPoint" />
            <Array as="points">
              <mxPoint x="1110" y="580" />
              <mxPoint x="50" y="580" />
            </Array>
          </mxGeometry>
        </mxCell>
        <mxCell id="izy5qJ_a97B4o7qX0N7h-153" value="" style="endArrow=classic;html=1;rounded=0;fontFamily=Helvetica;fontSize=12;fontColor=default;exitX=0.5;exitY=0;exitDx=0;exitDy=0;entryX=0.5;entryY=1;entryDx=0;entryDy=0;" edge="1" parent="izy5qJ_a97B4o7qX0N7h-158" source="izy5qJ_a97B4o7qX0N7h-121" target="izy5qJ_a97B4o7qX0N7h-65">
          <mxGeometry width="50" height="50" relative="1" as="geometry">
            <mxPoint x="680" y="970" as="sourcePoint" />
            <mxPoint x="730" y="920" as="targetPoint" />
            <Array as="points">
              <mxPoint x="354" y="820" />
              <mxPoint x="110" y="820" />
            </Array>
          </mxGeometry>
        </mxCell>
        <mxCell id="izy5qJ_a97B4o7qX0N7h-154" value="" style="endArrow=classic;html=1;rounded=0;fontFamily=Helvetica;fontSize=12;fontColor=default;exitX=0.5;exitY=0;exitDx=0;exitDy=0;entryX=0.5;entryY=1;entryDx=0;entryDy=0;" edge="1" parent="izy5qJ_a97B4o7qX0N7h-158" source="izy5qJ_a97B4o7qX0N7h-66" target="izy5qJ_a97B4o7qX0N7h-46">
          <mxGeometry width="50" height="50" relative="1" as="geometry">
            <mxPoint x="680" y="970" as="sourcePoint" />
            <mxPoint x="730" y="920" as="targetPoint" />
            <Array as="points">
              <mxPoint x="210" y="580" />
              <mxPoint x="50" y="580" />
            </Array>
          </mxGeometry>
        </mxCell>
        <mxCell id="izy5qJ_a97B4o7qX0N7h-155" value="" style="endArrow=classic;html=1;rounded=0;fontFamily=Helvetica;fontSize=12;fontColor=default;exitX=0.5;exitY=1;exitDx=0;exitDy=0;entryX=0.5;entryY=0;entryDx=0;entryDy=0;" edge="1" parent="izy5qJ_a97B4o7qX0N7h-158" source="izy5qJ_a97B4o7qX0N7h-120" target="izy5qJ_a97B4o7qX0N7h-96">
          <mxGeometry width="50" height="50" relative="1" as="geometry">
            <mxPoint x="680" y="970" as="sourcePoint" />
            <mxPoint x="730" y="920" as="targetPoint" />
            <Array as="points">
              <mxPoint x="245" y="1060" />
              <mxPoint x="80" y="1060" />
            </Array>
          </mxGeometry>
        </mxCell>
        <mxCell id="izy5qJ_a97B4o7qX0N7h-157" value="" style="endArrow=classic;html=1;rounded=0;fontFamily=Helvetica;fontSize=12;fontColor=default;exitX=0.5;exitY=1;exitDx=0;exitDy=0;entryX=0.5;entryY=1;entryDx=0;entryDy=0;" edge="1" parent="izy5qJ_a97B4o7qX0N7h-158" source="izy5qJ_a97B4o7qX0N7h-68" target="izy5qJ_a97B4o7qX0N7h-11">
          <mxGeometry width="50" height="50" relative="1" as="geometry">
            <mxPoint x="770" y="790" as="sourcePoint" />
            <mxPoint x="820" y="740" as="targetPoint" />
            <Array as="points">
              <mxPoint x="310" y="780" />
              <mxPoint x="890" y="780" />
              <mxPoint x="890" y="1110" />
              <mxPoint x="1400" y="1110" />
              <mxPoint x="1400" y="370" />
              <mxPoint x="880" y="370" />
            </Array>
          </mxGeometry>
        </mxCell>
      </root>
    </mxGraphModel>
  </diagram>
</mxfile>
